<svg width="1730" height="829" viewBox="0 0 1730 829" fill="none" xmlns="http://www.w3.org/2000/svg">
<g filter="url(#filter0_d_2_51)">
<g clip-path="url(#clip0_2_51)">
<path d="M4 0H1726V821H4V0Z" fill="white"/>
<path d="M436.699 144.16C453.392 143.973 465.141 150.658 473.36 165.383C482.085 181.012 490.154 197.075 498.539 212.896L550.219 310.052L606.63 415.28C616.234 433.114 625.847 450.948 635.346 468.837C639.342 476.363 643.784 484.746 644.587 493.338C646.705 515.993 631.533 535.103 608.583 536.882C581.649 536.837 575.166 524.737 563.822 503.355C555.749 488.138 547.29 472.6 539.156 457.362L484.541 355.429L432.117 256.736C423.42 240.386 410.212 217.147 402.707 200.75C400.72 196.477 399.448 191.905 398.94 187.219C396.273 162.994 413.904 146.523 436.699 144.16Z" fill="#CD5FC7"/>
<path d="M1414.19 288.873C1414.77 288.764 1415.06 288.74 1415.64 288.708C1442.16 287.266 1474.45 288.907 1495.19 307.649C1512.9 323.664 1519.29 349.93 1519.78 372.982C1520.26 395.092 1519.68 417.913 1519.87 440.239C1519.6 457.944 1520.8 476.145 1519.55 493.78C1518.03 515.432 1486.83 520.732 1473.18 507.496C1465.71 500.246 1465.98 489.332 1466.01 479.824C1442.25 518.488 1404.95 522.959 1363.47 507.991C1353.21 504.287 1344.45 496.508 1337.26 488.44C1328.47 475.936 1323.83 460.986 1324 445.702C1324.72 376.597 1416.85 382.43 1465.29 382.96C1465.3 376.587 1465.09 371.202 1464.59 364.903C1461.13 320.712 1414.38 328.766 1384.79 338.721C1371.44 343.216 1350.5 356.662 1337.3 346.818C1328.33 340.126 1328.41 322.933 1336.28 315.036C1355.71 296.667 1388.44 291.071 1414.19 288.873Z" fill="black"/>
<path d="M1435.62 413.361C1443.29 412.32 1464.44 412.714 1473.15 412.714C1473.21 447.68 1463.75 471.058 1425.26 475.119C1399.69 475.687 1374.91 456.185 1391.96 428.719C1398.89 417.546 1422.87 414.417 1435.62 413.361Z" fill="white"/>
<path d="M1027.08 288.878C1030.96 288.281 1035.81 288.58 1039.63 288.399C1100.71 285.624 1134.82 315.346 1134.05 377.614C1133.59 415.233 1134.73 455.274 1133.68 493.088C1133.3 507.033 1119.81 515.219 1106.62 514.68C1084.29 513.766 1080.17 499.865 1080.11 480.631C1056.2 518.897 1017.81 522.96 976.93 507.616C966.764 503.799 957.936 495.653 950.839 487.56C942.507 477.173 938.185 458.736 938.362 445.582C939.253 377.156 1030.56 382.096 1079.48 383.073C1079.61 361.719 1078.19 335.811 1051.01 331.829C1034.02 329.34 1015.97 332.713 999.926 338.255C990.635 341 976.325 349.471 967.193 350.045C935.982 352.005 938 316.882 963.435 305.413C987.407 294.606 1001.87 291.17 1027.08 288.878Z" fill="black"/>
<path d="M1043.29 413.37C1052.25 412.366 1069.88 412.748 1079.5 412.743C1079.69 448.533 1069.38 471.345 1030.38 475.203C1012.45 475.176 994.604 466.528 992.83 446.728C992.191 440.101 994.31 433.502 998.69 428.492C1009.2 416.288 1028.37 414.48 1043.29 413.37Z" fill="white"/>
<path d="M365.937 269.446C386.849 267.577 405.344 279.492 410.531 300.464C411.587 304.731 411.815 314.495 410.117 318.734C404.454 332.861 396.671 346.497 389.476 359.925L356.43 421.66L322.734 484.726C316.51 496.381 310.302 508.865 303.319 520.016C296.904 530.257 287.653 534.207 276.314 536.504C267.006 537.175 258.555 535.731 250.396 530.935C241.744 525.895 235.511 517.553 233.127 507.825C227.918 487.131 241.395 468.415 250.935 451.057L273.403 409.379L316.232 329.692C323.679 315.883 330.902 301.968 338.744 288.379C345.147 277.286 353.969 272.393 365.937 269.446Z" fill="#CD5FC7"/>
<path d="M781.47 193.567C789.006 193.244 793.922 193.224 800.929 196.988C815.915 205.039 815.577 218.24 815.551 233.048C815.535 241.626 815.576 250.262 815.569 258.812L815.557 329.842L815.535 434.175C815.533 452.353 815.777 470.552 815.306 488.72C814.928 503.289 806.906 510.651 793.47 514.035C776.119 516.744 759.558 508.927 758.725 490.057C758.05 474.787 758.119 460.012 758.122 444.736L758.138 367.819L758.143 271.862C758.147 254.475 757.985 237.086 758.412 219.705C758.773 205.015 768.21 197.363 781.47 193.567Z" fill="black"/>
<path d="M699.037 193.576C710.894 192.964 728.778 197.897 731.113 211.563C734.399 230.792 733.016 253.482 733.016 273.217L733.01 374.857L732.995 448.671C732.993 461.966 733.295 475.367 732.767 488.641C732.162 503.843 724.663 510.485 710.896 514.091C681.807 517.967 674.479 499.218 675.669 475.478C676.355 461.786 675.694 445.828 675.694 431.99L675.696 333.749L675.711 261.171C675.715 247.316 675.517 233.477 676.042 219.631C676.605 204.759 685.692 197.454 699.037 193.576Z" fill="black"/>
<path d="M1277.78 288.854C1278.46 288.756 1279.14 288.683 1279.83 288.637C1294.77 287.723 1311.39 292.077 1311.05 310.049C1310.14 357.359 1240.81 320.485 1224 365.046C1211.28 397.315 1218.37 434.216 1216.71 468.717C1215.6 491.772 1221.53 513.04 1187.93 514.845C1179.12 515.318 1171.26 510.553 1165.34 504.377C1162.84 500.406 1161.09 495.051 1160.93 490.411C1160.3 472.618 1160.83 454.048 1160.81 436.224L1160.71 322.947C1160.73 313.19 1160.36 303.57 1168.01 296.248C1178.24 286.463 1198.1 286.598 1207.95 296.786C1216.17 305.269 1214.61 320.276 1214.45 331.322C1228.25 303.881 1247.79 292.326 1277.78 288.854Z" fill="black"/>
<path d="M867.068 289.564C880.959 288.079 897.826 290.854 901.307 306.834C903.367 316.286 903.106 326.205 903.064 335.838C902.812 387.459 903.644 439.157 902.635 490.755C902.375 503.775 893.773 510.576 882.136 513.781C870.196 515.641 851.513 512.333 848.1 499.476C844.186 484.772 845.493 463.298 845.485 448.096L845.493 392.292C845.485 366.984 845.182 341.638 845.779 316.345C846.149 300.642 852.48 293.957 867.068 289.564Z" fill="black"/>
<path d="M437.58 399.914C448.517 399.974 457.591 402.128 466.221 409.328C474.073 415.99 478.896 425.548 479.589 435.825C480.4 446.38 476.926 456.817 469.952 464.778C461.58 474.157 451.803 477.351 439.78 478.111C428.886 477.978 419.867 475.701 411.199 468.713C403.05 462.087 397.924 452.447 396.984 441.983C396.075 432.055 399.149 422.174 405.527 414.514C414.203 404.117 424.831 401.08 437.58 399.914Z" fill="#7D67E6"/>
<path d="M868.607 188.605C877.411 188.066 885.154 188.53 892.94 193.197C899.499 197.067 904.224 203.411 906.066 210.804C911.094 230.853 899.768 243.905 880.883 248.153C870.734 248.402 862.427 248.816 853.287 243.07C846.914 239.093 842.456 232.677 840.945 225.318C836.611 205.051 849.748 192.159 868.607 188.605Z" fill="black"/>
<path d="M1314.91 586.541C1356.91 580.557 1360.08 640.875 1328.98 651.691C1291.14 659.097 1281.27 600.647 1314.91 586.541Z" fill="black"/>
<path d="M1319.18 593.176C1346.78 593.67 1347.11 635.086 1325.73 645.092C1298.58 647.074 1295.65 600.881 1319.18 593.176Z" fill="white"/>
<path d="M422.794 586.507C464.358 580.87 467.876 641.1 436.541 651.718C398.843 658.709 388.918 600.265 422.794 586.507Z" fill="black"/>
<path d="M426.072 593.183C454.1 592.435 455.051 635.081 433.509 645.054C407.583 647.653 403.112 603.008 426.072 593.183Z" fill="white"/>
<path d="M845.619 586.752C862.78 586.731 894.033 582.504 886.71 612.263C885.297 618.009 879.151 621.418 874.156 623.821C876.898 628.438 889.106 647.022 887.391 651.06C884.196 651.399 881.573 651.994 879.445 649.451L865.034 624.263L854.137 624.323C854.137 628.531 854.742 648.92 853.296 650.801C850.176 650.971 849.159 651.146 846.182 650.113C845.039 645.662 845.594 594.984 845.619 586.752Z" fill="black"/>
<path d="M854.103 593.622C867.11 593.484 888.619 594.365 876.62 613.807C869.482 618.544 862.444 617.575 854.061 617.448L854.103 593.622Z" fill="white"/>
<path d="M1244.31 586.69C1254.59 586.643 1266.77 585.784 1276.51 589.099C1286.66 592.553 1288.66 603.668 1284.7 612.658C1281.67 619.551 1278.92 620.889 1272.28 623.526C1275.3 628.44 1287.44 646.373 1286.21 651.017C1282.34 651.579 1280.19 651.933 1277.43 649.08C1272.89 640.779 1268.26 632.526 1263.54 624.324C1259.39 624.249 1256.5 624.342 1252.36 624.634C1252.37 633.133 1252.48 641.603 1252.05 650.094L1250.67 651.179C1248.15 651.297 1247.32 651.828 1245.73 650.59C1243.02 643.332 1244.07 597.431 1244.31 586.69Z" fill="black"/>
<path d="M1252.43 593.739C1265.24 593.552 1287 594.299 1274.98 613.854C1268.76 618.772 1260.21 617.607 1252.41 617.481L1252.43 593.739Z" fill="white"/>
<path d="M1061.36 586.647C1079.78 586.652 1109.63 583.035 1102.56 611.937C1101.05 618.101 1094.88 621.222 1089.72 623.752C1092.38 628.131 1105.23 647.3 1103.47 651.115C1099.64 651.422 1097.42 652.051 1094.84 649.05L1080.98 624.312L1069.36 624.243C1069.38 629.856 1070.53 647.54 1067.78 651.045C1065.55 651.174 1064.16 651.468 1062.2 650.343C1060.57 644.962 1061.31 595.847 1061.36 586.647Z" fill="black"/>
<path d="M1069.5 593.734C1082.27 593.492 1105.82 595.057 1091.79 614.32C1085.13 618.576 1077.27 617.557 1069.42 617.44L1069.5 593.734Z" fill="white"/>
<path d="M1354.87 586.767C1357.95 586.749 1359.78 586.826 1362.84 587.153C1366.99 590.185 1373.26 634.306 1374.5 642.241C1377.69 627.245 1381.77 612.183 1385.42 597.284C1386.33 593.52 1388.77 584.976 1393.82 586.356C1397.8 590.114 1406.97 633.134 1409.06 641.998C1410.14 635.373 1417.92 590.537 1420.04 587.618C1423.24 586.854 1423.73 586.895 1427.01 587.251C1427.98 589.141 1427.2 591.373 1426.77 593.626C1422.74 612.82 1418.61 631.992 1414.38 651.141L1404.18 651.141C1399.66 634.035 1395.36 616.872 1391.29 599.656C1388.41 615.664 1383.45 635.565 1378.84 651.104L1368.88 651.201C1364.05 629.789 1359.97 608.163 1354.87 586.767Z" fill="black"/>
<path d="M743.869 586.7C755.095 586.652 772.623 584.915 781.371 592.757C788.934 599.537 786.831 613.173 780.255 619.927C774.432 625.907 768.731 626.341 760.949 626.523C757.3 626.404 755.96 626.362 752.392 626.966C749.803 629.83 752.458 643.01 751.477 649.24C749.779 651.661 750.683 650.858 747.911 652.203C745.59 651.583 743.348 649.663 743.415 647.088C743.933 627.217 742.531 606.49 743.869 586.7Z" fill="black"/>
<path d="M751.475 593.754C759.15 593.589 767.02 592.819 773.827 597.185C780.922 601.736 778.178 610.13 774.026 615.792C766.754 620.244 759.886 619.545 751.473 619.645L751.475 593.754Z" fill="white"/>
<path d="M643.25 639.732C642.755 633.417 641.136 591.199 642.818 587.331C645.585 585.706 647.184 586.043 649.636 587.727C650.991 599.762 649.951 637.019 649.937 651.161C641.319 651.312 641.841 651.366 637.28 643.815C628.334 629.005 620.115 613.769 611.832 598.582C613.148 612.884 612.582 627.85 612.978 642.233C613.099 646.643 612.997 649.088 609.335 651.734C606.827 651.791 607.829 652.019 605.523 650.679C603.394 645.718 604.467 595.627 604.523 586.499C606.545 586.496 609.302 586.266 611.259 586.796C615.752 588.013 639.22 632.589 643.25 639.732Z" fill="black"/>
<path d="M806.599 586.645L816.241 586.887C823.125 607.797 830.039 628.681 837.144 649.515C836.978 649.983 836.811 650.451 836.645 650.919C824.003 653.268 826.891 639.957 822.555 632.675C822.008 631.757 818.493 632.022 817.283 631.987L799.738 632.143C797.488 638.691 797.425 646.777 792.199 650.733C789.557 651.673 789.01 651.418 786.423 650.682C785.463 647.866 803.835 593.861 806.599 586.645Z" fill="black"/>
<path d="M810.497 594.46C813.354 600.469 818.575 617.564 819.965 624.163C818.033 625.65 816.816 625.159 813.92 625.266L801.93 625.345C804.714 615.031 807.569 604.735 810.497 594.46Z" fill="white"/>
<path d="M987.827 638.582C987.474 625.764 987.709 612.896 987.339 600.067C987.188 595.057 986.297 589.514 990.795 586.264C993.259 585.871 992.536 585.603 994.2 586.701C996.454 591.986 995.42 641.759 995.378 651.161C987.323 651.347 987.272 652.098 982.841 644.709C973.895 629.79 965.52 614.594 957.339 599.242C957.515 607.558 958.76 643.953 957.532 649.927C955.523 651.121 951.966 651.224 950.091 649.767C949.242 642.572 948.998 592.939 950.326 586.692L958.205 586.867C967.622 603.244 978.031 622.908 987.827 638.582Z" fill="black"/>
<path d="M300.523 586.456L308.854 586.785C318.97 603.62 329.441 622.434 338.837 639.664C338.122 623.933 337.603 605.593 337.979 589.578C338.023 587.72 338.691 587.722 340.224 586.655C342.823 586.367 343.187 586.311 345.471 587.537C346.853 599.811 345.87 636.477 345.895 650.74C343.184 651.374 341.756 651.203 338.995 651.082C333.838 648.695 312.284 606.981 307.733 598.322C308.148 604.998 309.59 648.042 307.146 651.004C304.471 651.105 303.462 651.283 300.903 650.258C299.98 644.984 300.444 633.228 300.462 627.424L300.523 586.456Z" fill="black"/>
<path d="M1489.09 586.608C1492.82 586.589 1493.13 586.006 1495.95 587.606C1498.74 592.883 1497.22 606.58 1497.2 614.026L1525.95 614.021C1526.01 605.764 1525.44 596.997 1526.22 588.871C1526.46 586.39 1531.54 586.394 1533.75 587.794C1534.18 590.414 1534.34 592.768 1534.31 595.429C1534.05 613.666 1534.89 632.042 1533.92 650.24C1533.92 650.24 1532.62 651.628 1532.49 651.764C1529.16 651.217 1528.26 651.683 1526.3 649.741C1525.44 642.491 1525.95 629.317 1526.04 621.617L1497.1 621.605C1497.04 629.046 1498.84 644.018 1495.78 649.62C1493.13 651.535 1494.22 651.053 1490.66 651.036C1487.63 647.447 1489.04 595.3 1489.09 586.608Z" fill="black"/>
<path d="M524.589 586.474C527.412 586.494 530.53 586.206 532.595 587.664C533.486 594.391 532.987 611.422 532.928 619.005C541.908 608.396 550.729 597.655 559.39 586.785C562.498 586.575 566.357 586.615 569.533 586.557C562.998 593.785 555.095 604.126 548.625 611.901L564.701 639.298C566.68 643.237 568.808 645.237 570.496 649.891L569.928 650.998C568.852 651.013 564.415 651.077 563.956 650.777C558.769 647.392 546.443 624.092 543.339 618.863C539.799 623.05 536.332 627.297 532.938 631.603C532.969 635.484 533.424 647.861 532.06 650.913C528.944 651.174 527.929 651.373 524.905 650.481C524.174 644.55 524.485 633.471 524.494 627.111L524.589 586.474Z" fill="black"/>
<path d="M1203.2 586.546C1203.68 586.488 1204.16 586.435 1204.64 586.386C1216.35 585.178 1220.71 586.784 1229.4 593.826C1227.39 596.392 1225.77 599.315 1222.33 597.658C1216.6 594.893 1212.08 591.287 1205.42 593.485C1200.02 595.236 1195.56 599.11 1193.06 604.217C1187.57 615.309 1188.59 636.651 1201.37 643.119C1208.86 646.912 1214.78 645.059 1222.21 642.485L1222.23 625.596L1209.19 625.582C1208.86 623.916 1208.12 620.184 1209.6 619.279C1213.98 616.611 1224.91 617.909 1229.93 617.992L1229.86 645.674C1184.65 675.548 1161.05 602.617 1203.2 586.546Z" fill="black"/>
<path d="M691.423 585.745C696.727 585.767 714.143 589.632 709.54 597.517C703.959 600.152 700.279 593.169 694.304 592.918C671.328 591.953 665.233 625 678.873 639.176C683.037 643.438 688.729 645.86 694.686 645.907C706.336 645.972 703.785 633.4 703.68 625.07C700.49 625.165 695.203 625.552 692.147 624.872C689.96 624.386 689.908 623.083 688.852 620.856C691.491 616.324 705.876 617.994 711.209 618.111L711.248 645.471C664.331 678.626 641.23 591.91 691.423 585.745Z" fill="black"/>
<path d="M238.461 586.542C240.321 586.52 243.48 586.194 245.202 586.826C249.153 588.277 244.792 630.359 250.053 639.408C251.569 642.017 253.942 643.874 256.874 644.624C260.783 645.624 265.995 645.132 269.441 642.946C282.72 634.525 273.96 601.234 277.218 587.288C277.753 586.71 278.461 585.63 279.164 585.736C285.032 586.618 284.515 588.925 284.593 592.828C284.429 603.592 287.407 638.947 277.379 646.681C259.708 660.312 238.251 650.225 238.351 626.454C238.401 614.435 238.321 599.539 238.461 586.542Z" fill="black"/>
<path d="M1011.46 586.72C1017.9 586.783 1044.26 585.381 1047.6 587.864C1047.99 589.844 1048.05 590.114 1047.43 592.027C1043.55 595.376 1026.24 593.976 1019.83 593.877L1019.91 614.129C1024.11 614.095 1039.23 613.698 1042.48 614.423C1044.57 616.791 1044.01 615.776 1044.39 619.111C1044.1 619.714 1043.78 620.419 1043.4 621.228C1037.07 623.211 1026.33 619.421 1020.5 622.569C1020.04 622.818 1020.05 624.828 1019.98 625.634L1019.91 644.243C1027.41 644.349 1041.64 642.827 1047.69 645.442C1049.59 647.575 1049.13 646.469 1049.06 649.815C1046.48 652.191 1016.8 651.12 1011.33 651.087C1011.18 629.631 1011.23 608.174 1011.46 586.72Z" fill="black"/>
<path d="M1127.45 586.525C1139.5 585.077 1143.77 586.775 1153.03 593.596C1149.27 597.974 1149.33 599.736 1143.35 596.34C1133.71 590.871 1121.98 590.935 1122.8 604.894C1123 608.304 1128.62 611.402 1131.31 612.672C1146.57 618.919 1162.57 625.356 1151.41 644.836C1148.34 650.14 1140.37 651.767 1134.39 652.65C1123.32 651.888 1119.43 650.028 1110.46 643.767C1111.93 641.502 1113.83 639.163 1115.5 637.009C1122.33 642.674 1140.18 652.131 1146.37 637.945C1151.85 625.411 1117.89 621.015 1114.66 608.564C1111.76 597.326 1117.19 591.021 1127.45 586.525Z" fill="black"/>
<path d="M493.601 585.745C502.828 586.185 505.795 588.264 512.827 593.689C511.044 595.569 509.696 596.912 507.761 598.63C500.905 594.069 492.845 590.496 485.365 595.59C463.989 610.149 478.119 662.211 507.133 640.02C507.834 639.172 508.309 639.059 509.306 638.504C511.852 639.562 510.967 638.837 512.505 641.58C512.446 647.922 504.877 651.175 499.581 652.015C481.608 655.132 468.605 642.929 466.679 625.358C464.497 605.446 472.385 588.244 493.601 585.745Z" fill="black"/>
<path d="M892.613 587.039C900.045 586.973 935.621 585.073 939.236 589.781C939.354 592.665 939.715 591.77 938.32 593.652C933.636 594.322 925.497 594.078 920.494 594.065L920.477 630.681C920.503 637.006 920.612 643.492 920.368 649.798L918.846 651.025C916.147 651.508 915.828 651.481 913.229 650.596C910.892 646.957 911.985 601.978 912.035 594.08C906.082 593.96 899.491 595.24 894.336 593.448C892.058 591.111 892.798 591.264 892.613 587.039Z" fill="black"/>
<path d="M1432.27 586.986C1439.03 587.069 1474.44 585.896 1477.87 588.289C1477.81 591.875 1478.34 590.801 1476.31 593.351C1472.59 595.085 1463.97 594.212 1459.44 594.078L1459.42 631.522C1459.48 637.59 1459.67 644.123 1459.22 650.134L1458.21 650.918C1454.85 650.762 1453.68 651.314 1451.46 649.648C1450.29 641.611 1451.01 604.218 1451.04 594.078C1444.52 593.929 1438.62 595.63 1433.14 593.154C1431.52 590.616 1432.12 590.617 1432.27 586.986Z" fill="black"/>
<path d="M362.044 586.515C364.616 586.467 368.106 586.019 369.962 587.605C370.763 591.894 370.4 602.578 370.38 607.532L370.228 644.263C376.807 644.207 390.916 643.719 396.86 644.63C398.051 646.238 397.703 648.903 397.707 651.094L361.856 651.138C362.347 630.068 361.927 607.75 362.044 586.515Z" fill="black"/>
<path d="M580.273 586.674C583.123 586.642 585.933 586.314 588.063 587.781C589.42 600.849 588.372 636.471 588.324 651.181C585.205 651.282 584.298 651.264 581.232 650.742C579.27 648.24 580.237 594.349 580.273 586.674Z" fill="black"/>
</g>
</g>
<defs>
<filter id="filter0_d_2_51" x="0" y="0" width="1730" height="829" filterUnits="userSpaceOnUse" color-interpolation-filters="sRGB">
<feFlood flood-opacity="0" result="BackgroundImageFix"/>
<feColorMatrix in="SourceAlpha" type="matrix" values="0 0 0 0 0 0 0 0 0 0 0 0 0 0 0 0 0 0 127 0" result="hardAlpha"/>
<feOffset dy="4"/>
<feGaussianBlur stdDeviation="2"/>
<feComposite in2="hardAlpha" operator="out"/>
<feColorMatrix type="matrix" values="0 0 0 0 0 0 0 0 0 0 0 0 0 0 0 0 0 0 0.25 0"/>
<feBlend mode="normal" in2="BackgroundImageFix" result="effect1_dropShadow_2_51"/>
<feBlend mode="normal" in="SourceGraphic" in2="effect1_dropShadow_2_51" result="shape"/>
</filter>
<clipPath id="clip0_2_51">
<rect width="1722" height="821" fill="white" transform="translate(4)"/>
</clipPath>
</defs>
</svg>
